<svg xmlns="http://www.w3.org/2000/svg" xmlns:xlink="http://www.w3.org/1999/xlink" version="1.1" style="" xml:space="preserve" width="293" height="65"><rect id="backgroundrect" width="100%" height="100%" x="0" y="0" fill="none" stroke="none"/>
<style type="text/css">
	.st0{fill:url(#SVGID_1_);}
	.st1{fill:url(#SVGID_2_);}
	.st2{fill:url(#SVGID_3_);}
	.st3{fill:url(#SVGID_4_);}
	.st4{fill:#2D2E82;}
	.st5{fill:#3C3C3B;}
</style>

<g class="currentLayer" style=""><title>Layer 1</title><g id="svg_1" class="">
	<g id="svg_2">
		<linearGradient id="SVGID_1_" gradientUnits="userSpaceOnUse" x1="27.558500289916992" y1="76.71489715576172" x2="44.27349853515625" y2="93.42990112304688" transform="translate(-28.559999465942383,-27.56999969482422) ">
			<stop offset="0" style="stop-color:#1D70B7"/>
			<stop offset="0.9808" style="stop-color:#2D2E82"/>
		</linearGradient>
		<rect x="0" y="50.13999938964844" class="st0" width="14.710000038146973" height="14.710000038146973" id="svg_3"/>
		<linearGradient id="SVGID_2_" gradientUnits="userSpaceOnUse" x1="83.93190002441406" y1="26.570100784301758" x2="100.64679718017578" y2="43.28499984741211" transform="translate(-28.559999465942383,-27.56999969482422) ">
			<stop offset="0" style="stop-color:#1D70B7"/>
			<stop offset="0.9808" style="stop-color:#2D2E82"/>
		</linearGradient>
		<rect x="56.3700008392334" y="0" class="st1" width="14.710000038146973" height="14.710000038146973" id="svg_4"/>
		<linearGradient id="SVGID_3_" gradientUnits="userSpaceOnUse" x1="35.3838005065918" y1="43.817298889160156" x2="92.82160186767578" y2="101.25509643554688" transform="translate(-28.559999465942383,-27.56999969482422) ">
			<stop offset="0" style="stop-color:#1D70B7"/>
			<stop offset="0.9808" style="stop-color:#2D2E82"/>
		</linearGradient>
		<polygon class="st2" points="55.079999923706055,50.13999938964844 54.84000205993652,49.98999786376953 15.420000076293945,25.06999969482422 0,25.06999969482422 0,39.790000915527344 15.710000991821289,39.790000915527344 16.000001907348633,39.790000915527344 16.250001907348633,39.94000244140625 55.66000175476074,64.86000061035156 71.09000205993652,64.86000061035156 71.09000205993652,50.13999938964844 55.3700008392334,50.13999938964844 " id="svg_5"/>
		<linearGradient id="SVGID_4_" gradientUnits="userSpaceOnUse" x1="35.3838005065918" y1="18.74489974975586" x2="92.82160186767578" y2="76.18270111083984" transform="translate(-28.559999465942383,-27.56999969482422) ">
			<stop offset="0" style="stop-color:#1D70B7"/>
			<stop offset="0.9808" style="stop-color:#2D2E82"/>
		</linearGradient>
		<polygon class="st3" points="71.09000205993652,39.790000915527344 71.09000205993652,25.06999969482422 55.3700008392334,25.06999969482422 55.079999923706055,25.06999969482422 54.84000205993652,24.920001983642578 15.420000076293945,0 0,0 0,14.720001220703125 15.710000991821289,14.720001220703125 16.000001907348633,14.720001220703125 16.250001907348633,14.869998931884766 55.66000175476074,39.790000915527344 " id="svg_6"/>
	</g>
	<g id="svg_7">
		<g id="svg_8">
			<path class="st4" d="M120.04000053405761,33.560000305175784 l-15.3,-20.92 v20.92 h-3.26 V7.340000305175778 h3.34 l15.1,20.49 V7.340000305175778 h3.26 v26.23 H120.04000053405761 z" id="svg_9"/>
			<path class="st4" d="M131.2900005340576,33.560000305175784 V7.340000305175778 h17.18 v2.91 h-13.92 v8.46 h13.65 v2.91 h-13.65 v9.04 h13.92 v2.91 H131.2900005340576 z" id="svg_10"/>
			<path class="st4" d="M162.12000053405762,33.560000305175784 V10.250000305175782 h-8.3 v-2.91 h19.9 v2.91 h-8.34 v23.32 H162.12000053405762 z" id="svg_11"/>
			<path class="st4" d="M178.44000053405762,29.87000030517578 l1.9300000000000002,-2.48 c1.73,1.9300000000000002 4.5600000000000005,3.74 8.26,3.74 c4.68,0 6.17,-2.52 6.17,-4.52 c0,-6.76 -15.53,-3.03 -15.53,-12.39 c0,-4.33 3.85,-7.27 9,-7.27 c4.01,0 7.12,1.34 9.32,3.66 l-1.97,2.4 c-1.97,-2.16 -4.72,-3.15 -7.59,-3.15 c-3.15,0 -5.39,1.6900000000000002 -5.39,4.17 c0,5.9 15.53,2.52 15.53,12.31 c0,3.81 -2.59,7.71 -9.67,7.71 C183.9500005340576,34.04000030517578 180.6000005340576,32.310000305175784 178.44000053405762,29.87000030517578 z" id="svg_12"/>
			<path class="st4" d="M203.97000053405762,20.47000030517578 c0,-7.75 5.23,-13.57 13.01,-13.57 c7.75,0 13.02,5.82 13.02,13.57 c0,7.75 -5.27,13.57 -13.02,13.57 C209.19000053405762,34.04000030517578 203.97000053405762,28.22000030517578 203.97000053405762,20.47000030517578 zM226.6100005340576,20.47000030517578 c0,-6.13 -3.7800000000000002,-10.66 -9.63,-10.66 c-5.9,0 -9.63,4.52 -9.63,10.66 c0,6.09 3.74,10.66 9.63,10.66 C222.84000053405762,31.130000305175784 226.6100005340576,26.570000305175782 226.6100005340576,20.47000030517578 z" id="svg_13"/>
			<path class="st4" d="M237.0800005340576,33.560000305175784 V7.340000305175778 h3.26 v23.32 h12.19 v2.91 H237.0800005340576 z" id="svg_14"/>
			<path class="st4" d="M259.10000053405764,33.560000305175784 V7.340000305175778 h3.26 v26.23 H259.10000053405764 z" id="svg_15"/>
			<path class="st4" d="M270.4700005340576,33.560000305175784 V7.340000305175778 h8.96 c8.14,0 13.45,5.7 13.45,13.13 c0,7.47 -5.3100000000000005,13.09 -13.45,13.09 H270.4700005340576 zM289.5000005340576,20.47000030517578 c0,-5.66 -3.58,-10.22 -10.07,-10.22 h-5.7 v20.41 h5.7 C285.80000053405763,30.65000030517578 289.5000005340576,26.090000305175778 289.5000005340576,20.47000030517578 z" id="svg_16"/>
		</g>
		<g id="svg_17">
			<path class="st5" d="M101.34000053405762,57.68000030517578 V42.160000305175785 h1.33 v15.52 H101.34000053405762 z" id="svg_18"/>
			<path class="st5" d="M115.23000053405761,57.68000030517578 v-7.61 c0,-2.16 -1.09,-2.8200000000000003 -2.72,-2.8200000000000003 c-1.44,0 -2.93,0.91 -3.6500000000000004,1.9300000000000002 v8.49 h-1.21 V46.440000305175786 h1.21 v1.7000000000000002 c0.81,-0.98 2.42,-1.98 4.05,-1.98 c2.2800000000000002,0 3.54,1.12 3.54,3.6500000000000004 v7.87 H115.23000053405761 z" id="svg_19"/>
			<path class="st5" d="M124.40000053405763,57.68000030517578 l-4.75,-11.24 h1.35 l4.1,9.82 l4.05,-9.82 h1.37 l-4.75,11.24 H124.40000053405763 z" id="svg_20"/>
			<path class="st5" d="M133.0800005340576,52.050000305175786 c0,-3.26 2.3,-5.890000000000001 5.42,-5.890000000000001 c3.42,0 5.3,2.72 5.3,5.96 v0.33000000000000007 h-9.4 c0.12000000000000001,2.44 1.75,4.47 4.4,4.47 c1.42,0 2.72,-0.54 3.68,-1.56 l0.6300000000000001,0.79 c-1.12,1.1600000000000001 -2.54,1.82 -4.4,1.82 C135.43000053405763,57.96000030517578 133.0800005340576,55.51000030517578 133.0800005340576,52.050000305175786 zM138.4800005340576,47.20000030517578 c-2.6500000000000004,0 -3.98,2.33 -4.07,4.28 h8.17 C142.55000053405763,49.58000030517579 141.30000053405763,47.20000030517578 138.4800005340576,47.20000030517578 z" id="svg_21"/>
			<path class="st5" d="M147.1100005340576,56.190000305175786 l0.7200000000000001,-0.91 c0.7200000000000001,0.91 2.05,1.6500000000000001 3.63,1.6500000000000001 c1.8800000000000001,0 3,-0.98 3,-2.2800000000000002 c0,-3.07 -7.1,-1.35 -7.1,-5.38 c0,-1.7200000000000002 1.47,-3.12 4,-3.12 c1.9300000000000002,0 3.21,0.7500000000000001 4.03,1.6500000000000001 l-0.6700000000000002,0.8600000000000001 c-0.6500000000000001,-0.8800000000000001 -1.86,-1.49 -3.35,-1.49 c-1.75,0 -2.8200000000000003,0.8800000000000001 -2.8200000000000003,2.05 c0,2.8200000000000003 7.1,1.09 7.1,5.42 c0,1.82 -1.4,3.3 -4.21,3.3 C149.63000053405761,57.96000030517578 148.2300005340576,57.420000305175776 147.1100005340576,56.190000305175786 z" id="svg_22"/>
			<path class="st5" d="M160.1700005340576,55.51000030517578 v-8 h-1.86 v-1.07 h1.86 v-3.07 h1.23 v3.07 h2.2800000000000002 v1.07 h-2.2800000000000002 v7.82 c0,0.91 0.37000000000000005,1.54 1.1600000000000001,1.54 c0.54,0 1,-0.26 1.26,-0.54 l0.47000000000000003,0.93 c-0.44000000000000006,0.42000000000000004 -0.98,0.7000000000000001 -1.9100000000000001,0.7000000000000001 C160.8900005340576,57.96000030517578 160.1700005340576,57.050000305175786 160.1700005340576,55.51000030517578 z" id="svg_23"/>
		</g>
	</g>
</g></g></svg>