<svg xmlns="http://www.w3.org/2000/svg" xmlns:xlink="http://www.w3.org/1999/xlink" version="1.1" style="" xml:space="preserve" width="338" height="60"><rect id="backgroundrect" width="100%" height="100%" x="0" y="0" fill="none" stroke="none"/>
<style type="text/css">
	.st0{fill:#FFFFFF;}
	.st1{opacity:0.6;fill:#FFFFFF;}
</style>

<g class="currentLayer" style=""><title>Layer 1</title><g id="svg_1" class="">
	<g id="svg_2">
		<g id="svg_3">
			<path class="st0" d="M162.8392297744751,27.624998474121092 v9.6 c0,0.5 -0.2,0.9 -0.5,1.2 s-0.7000000000000001,0.5 -1.2,0.5 s-0.9,-0.2 -1.2,-0.5 s-0.5,-0.7000000000000001 -0.5,-1.2 v-9.6 c0,-3.1 -1.3,-4.7 -4,-4.7 c-0.9,0 -1.8,0.2 -2.5,0.6000000000000001 c-0.8,0.4 -1.3,1 -1.8,1.7000000000000002 c-0.4,0.7000000000000001 -0.6000000000000001,1.5 -0.6000000000000001,2.4 v9.6 c0,0.5 -0.2,0.9 -0.5,1.2 c-0.30000000000000004,0.30000000000000004 -0.7000000000000001,0.5 -1.2,0.5 s-0.9,-0.2 -1.2,-0.5 c-0.30000000000000004,-0.30000000000000004 -0.5,-0.7000000000000001 -0.5,-1.2 v-9.6 c0,-1.4 -0.30000000000000004,-2.5 -0.9,-3.4 c-0.6000000000000001,-0.9 -1.6,-1.3 -3,-1.3 c-1.4,0 -2.6,0.5 -3.5,1.4 c-0.9,0.9 -1.4,2 -1.4,3.3 v9.6 c0,0.5 -0.2,0.9 -0.5,1.2 c-0.30000000000000004,0.30000000000000004 -0.7000000000000001,0.5 -1.2,0.5 s-0.9,-0.2 -1.2,-0.5 c-0.30000000000000004,-0.30000000000000004 -0.5,-0.7000000000000001 -0.5,-1.2 V21.824998474121095 c0,-0.5 0.2,-0.9 0.5,-1.2 c0.30000000000000004,-0.30000000000000004 0.7000000000000001,-0.5 1.2,-0.5 c0.5,0 0.9,0.2 1.2,0.5 c0.30000000000000004,0.30000000000000004 0.5,0.7000000000000001 0.5,1.2 v1.3 c0.6000000000000001,-0.9 1.5,-1.7000000000000002 2.5,-2.4 c1,-0.6000000000000001 2.2,-1 3.4,-1 c3,0 4.9,1.3 5.8,4 c0.5,-1 1.4,-1.9 2.6,-2.7 c1.2,-0.8 2.5,-1.2 3.9,-1.2 C160.7392297744751,19.824998474121095 162.8392297744751,22.424998474121097 162.8392297744751,27.624998474121092 z" id="svg_4"/>
			<path class="st0" d="M186.7392297744751,29.924998474121097 c-0.30000000000000004,0.30000000000000004 -0.7000000000000001,0.5 -1.2,0.5 h-12.7 c0.2,1.8 0.8,3.2 2,4.2 c1.2,1.1 2.6,1.6 4.3,1.6 c1.2,0 2.1,-0.2 2.8,-0.5 c0.7000000000000001,-0.30000000000000004 1.4,-0.8 1.9,-1.3 c0.4,-0.2 0.7000000000000001,-0.30000000000000004 1,-0.30000000000000004 c0.4,0 0.7000000000000001,0.1 1,0.4 c0.30000000000000004,0.30000000000000004 0.4,0.6000000000000001 0.4,1 c0,0.5 -0.2,1 -0.7000000000000001,1.4 c-0.7000000000000001,0.7000000000000001 -1.6,1.3 -2.8,1.8 c-1.2,0.5 -2.3,0.7000000000000001 -3.5,0.7000000000000001 c-1.9,0 -3.7,-0.4 -5.1,-1.2 c-1.5,-0.8 -2.6,-2 -3.4,-3.4 s-1.2,-3.1 -1.2,-5 c0,-2 0.4,-3.8 1.2,-5.3 c0.8,-1.5 1.9,-2.7 3.3,-3.5 c1.4,-0.8 2.8,-1.2 4.4,-1.2 c1.5,0 3,0.4 4.3,1.2 c1.3,0.8 2.4,1.9 3.2,3.3 s1.2,3 1.3,4.7 C187.2392297744751,29.224998474121094 187.0392297744751,29.624998474121092 186.7392297744751,29.924998474121097 zM174.9392297744751,24.02499847412109 c-1,0.8 -1.6,1.9 -1.9,3.5 h10.6 v-0.30000000000000004 c-0.1,-1.3 -0.7000000000000001,-2.3 -1.7000000000000002,-3.1 c-1,-0.8 -2.2,-1.2 -3.5,-1.2 C177.0392297744751,22.824998474121095 175.9392297744751,23.224998474121094 174.9392297744751,24.02499847412109 z" id="svg_5"/>
			<path class="st0" d="M210.4392297744751,12.824998474121095 c0.30000000000000004,0.30000000000000004 0.5,0.7000000000000001 0.5,1.2 v23.2 c0,0.5 -0.2,0.9 -0.5,1.2 s-0.7000000000000001,0.5 -1.2,0.5 s-0.9,-0.2 -1.2,-0.5 c-0.30000000000000004,-0.30000000000000004 -0.5,-0.7000000000000001 -0.5,-1.2 v-1 c-0.6000000000000001,0.9 -1.4,1.6 -2.5,2.2 c-1.1,0.6000000000000001 -2.3,0.9 -3.5,0.9 c-1.6,0 -3.1,-0.4 -4.4,-1.3 c-1.3,-0.8 -2.4,-2 -3.1,-3.5 c-0.8,-1.5 -1.2,-3.2 -1.2,-5.1 c0,-1.9 0.4,-3.6 1.1,-5.1 c0.8,-1.5 1.8,-2.7 3.1,-3.5 c1.3,-0.8 2.8,-1.3 4.4,-1.3 c1.3,0 2.4,0.30000000000000004 3.5,0.8 s2,1.2 2.6,2.1 v-8.5 c0,-0.5 0.2,-0.9 0.5,-1.2 c0.30000000000000004,-0.30000000000000004 0.7000000000000001,-0.5 1.2,-0.5 S210.1392297744751,12.524998474121091 210.4392297744751,12.824998474121095 zM204.8392297744751,35.324998474121095 c0.9,-0.6000000000000001 1.6,-1.4 2.1,-2.4 c0.5,-1 0.7000000000000001,-2.1 0.7000000000000001,-3.4 c0,-1.2 -0.2,-2.4 -0.7000000000000001,-3.4 c-0.5,-1 -1.2,-1.8 -2.1,-2.4 c-0.9,-0.6000000000000001 -1.9,-0.9 -3,-0.9 s-2.1,0.30000000000000004 -3,0.9 c-0.9,0.6000000000000001 -1.6,1.4 -2.1,2.4 c-0.5,1 -0.7000000000000001,2.2 -0.7000000000000001,3.4 c0,1.3 0.2,2.4 0.7000000000000001,3.4 c0.5,1 1.2,1.8 2.1,2.4 c0.9,0.6000000000000001 1.9,0.9 3,0.9 S203.9392297744751,35.9249984741211 204.8392297744751,35.324998474121095 z" id="svg_6"/>
			<path class="st0" d="M218.7392297744751,17.224998474121094 c-0.30000000000000004,-0.30000000000000004 -0.5,-0.7000000000000001 -0.5,-1.2 v-0.6000000000000001 c0,-0.6000000000000001 0.2,-1 0.5,-1.2 c0.30000000000000004,-0.2 0.8,-0.4 1.5,-0.4 s1.2,0.1 1.5,0.4 s0.5,0.7000000000000001 0.5,1.2 v0.6000000000000001 c0,0.6000000000000001 -0.2,1 -0.5,1.2 c-0.30000000000000004,0.2 -0.8,0.4 -1.5,0.4 C219.5392297744751,17.52499847412109 219.0392297744751,17.424998474121097 218.7392297744751,17.224998474121094 zM221.4392297744751,38.4249984741211 c-0.30000000000000004,0.30000000000000004 -0.7000000000000001,0.5 -1.2,0.5 c-0.5,0 -0.9,-0.2 -1.2,-0.5 c-0.30000000000000004,-0.30000000000000004 -0.5,-0.7000000000000001 -0.5,-1.2 V21.624998474121092 c0,-0.5 0.2,-0.9 0.5,-1.2 c0.30000000000000004,-0.30000000000000004 0.7000000000000001,-0.5 1.2,-0.5 c0.5,0 0.9,0.2 1.2,0.5 s0.5,0.7000000000000001 0.5,1.2 v15.6 C221.9392297744751,37.724998474121094 221.7392297744751,38.12499847412109 221.4392297744751,38.4249984741211 z" id="svg_7"/>
			<path class="st0" d="M246.1392297744751,20.324998474121095 c0.30000000000000004,0.30000000000000004 0.5,0.8 0.5,1.3 v15.6 c0,0.5 -0.2,0.9 -0.5,1.2 c-0.30000000000000004,0.30000000000000004 -0.7000000000000001,0.5 -1.2,0.5 s-0.9,-0.2 -1.2,-0.5 c-0.30000000000000004,-0.30000000000000004 -0.5,-0.7000000000000001 -0.5,-1.2 v-0.9 c-0.6000000000000001,0.8 -1.5,1.6 -2.6,2.1 s-2.2,0.9 -3.5,0.9 c-1.6,0 -3.1,-0.4 -4.4,-1.3 c-1.3,-0.8 -2.4,-2 -3.1,-3.5 s-1.1,-3.2 -1.1,-5.1 c0,-1.9 0.4,-3.6 1.1,-5.1 c0.8,-1.5 1.8,-2.7 3.1,-3.5 c1.3,-0.8 2.8,-1.3 4.4,-1.3 c1.3,0 2.5,0.30000000000000004 3.5,0.8 c1.1,0.5 2,1.2 2.6,2 v-0.9 c0,-0.5 0.2,-0.9 0.5,-1.3 c0.30000000000000004,-0.30000000000000004 0.7000000000000001,-0.5 1.2,-0.5 S245.73922977447512,20.02499847412109 246.1392297744751,20.324998474121095 zM240.5392297744751,35.324998474121095 c0.9,-0.6000000000000001 1.6,-1.4 2.1,-2.4 c0.5,-1 0.7000000000000001,-2.1 0.7000000000000001,-3.4 c0,-1.2 -0.2,-2.4 -0.7000000000000001,-3.4 c-0.5,-1 -1.2,-1.8 -2.1,-2.4 c-0.9,-0.6000000000000001 -1.9,-0.9 -3,-0.9 c-1.1,0 -2.1,0.30000000000000004 -3,0.9 c-0.9,0.6000000000000001 -1.6,1.4 -2.1,2.4 c-0.5,1 -0.7000000000000001,2.1 -0.7000000000000001,3.4 c0,1.3 0.2,2.4 0.7000000000000001,3.4 c0.5,1 1.2,1.8 2.1,2.4 c0.9,0.6000000000000001 1.9,0.9 3,0.9 C238.6392297744751,36.12499847412109 239.6392297744751,35.9249984741211 240.5392297744751,35.324998474121095 z" id="svg_8"/>
			<path class="st0" d="M270.9392297744751,12.824998474121095 c0.30000000000000004,0.30000000000000004 0.5,0.7000000000000001 0.5,1.2 v23.2 c0,0.5 -0.2,0.9 -0.5,1.2 c-0.30000000000000004,0.30000000000000004 -0.7000000000000001,0.5 -1.2,0.5 c-0.5,0 -0.9,-0.2 -1.2,-0.5 c-0.30000000000000004,-0.30000000000000004 -0.5,-0.7000000000000001 -0.5,-1.2 v-1 c-0.6000000000000001,0.9 -1.4,1.6 -2.5,2.2 c-1.1,0.6000000000000001 -2.3,0.9 -3.5,0.9 c-1.6,0 -3.1,-0.4 -4.4,-1.3 c-1.3,-0.8 -2.4,-2 -3.1,-3.5 c-0.8,-1.5 -1.2,-3.2 -1.2,-5.1 c0,-1.9 0.4,-3.6 1.1,-5.1 c0.8,-1.5 1.8,-2.7 3.1,-3.5 c1.3,-0.8 2.8,-1.3 4.4,-1.3 c1.3,0 2.4,0.30000000000000004 3.5,0.8 s2,1.2 2.6,2.1 v-8.5 c0,-0.5 0.2,-0.9 0.5,-1.2 c0.30000000000000004,-0.30000000000000004 0.7000000000000001,-0.5 1.2,-0.5 C270.1392297744751,12.324998474121095 270.6392297744751,12.524998474121091 270.9392297744751,12.824998474121095 zM265.3392297744751,35.324998474121095 c0.9,-0.6000000000000001 1.6,-1.4 2.1,-2.4 c0.5,-1 0.7000000000000001,-2.1 0.7000000000000001,-3.4 c0,-1.2 -0.2,-2.4 -0.7000000000000001,-3.4 c-0.5,-1 -1.2,-1.8 -2.1,-2.4 c-0.9,-0.6000000000000001 -1.9,-0.9 -3,-0.9 s-2.1,0.30000000000000004 -3,0.9 c-0.9,0.6000000000000001 -1.6,1.4 -2.1,2.4 c-0.5,1 -0.7000000000000001,2.2 -0.7000000000000001,3.4 c0,1.3 0.2,2.4 0.7000000000000001,3.4 c0.5,1 1.2,1.8 2.1,2.4 c0.9,0.6000000000000001 1.9,0.9 3,0.9 S264.4392297744751,35.9249984741211 265.3392297744751,35.324998474121095 z" id="svg_9"/>
			<path class="st0" d="M295.7392297744751,34.62499847412109 c-0.8,1.5 -2,2.7 -3.4,3.5 c-1.5,0.8 -3.1,1.3 -4.8,1.3 c-1.8,0 -3.4,-0.4 -4.8,-1.3 c-1.5,-0.8 -2.6,-2 -3.4,-3.5 c-0.8,-1.5 -1.3,-3.2 -1.3,-5 s0.4,-3.6 1.3,-5.1 c0.8,-1.5 2,-2.7 3.4,-3.5 s3.1,-1.3 4.8,-1.3 c1.8,0 3.4,0.4 4.8,1.3 s2.6,2 3.4,3.5 c0.8,1.5 1.3,3.2 1.3,5.1 S296.6392297744751,33.12499847412109 295.7392297744751,34.62499847412109 zM292.8392297744751,26.02499847412109 c-0.5,-1 -1.3,-1.8 -2.2,-2.4 c-0.9,-0.6000000000000001 -2,-0.8 -3.1,-0.8 c-1.1,0 -2.2,0.30000000000000004 -3.1,0.8 c-0.9,0.6000000000000001 -1.7000000000000002,1.4 -2.2,2.4 c-0.5,1 -0.8,2.2 -0.8,3.5 c0,1.3 0.30000000000000004,2.4 0.8,3.4 c0.5,1 1.3,1.8 2.2,2.4 c0.9,0.6000000000000001 1.9,0.8 3.1,0.8 c1.1,0 2.2,-0.30000000000000004 3.1,-0.8 c0.9,-0.6000000000000001 1.7000000000000002,-1.3 2.2,-2.4 c0.5,-1 0.8,-2.1 0.8,-3.4 C293.6392297744751,28.224998474121094 293.3392297744751,27.124998474121092 292.8392297744751,26.02499847412109 z" id="svg_10"/>
			<path class="st0" d="M314.7392297744751,20.124998474121092 c0.5,0.30000000000000004 0.7000000000000001,0.7000000000000001 0.7000000000000001,1.2 c0,0.6000000000000001 -0.2,1 -0.5,1.3 s-0.7000000000000001,0.5 -1.1,0.5 c-0.2,0 -0.5,-0.1 -1,-0.2 c-0.5,-0.2 -0.9,-0.30000000000000004 -1.2,-0.30000000000000004 c-0.7000000000000001,0 -1.5,0.30000000000000004 -2.2,0.8 c-0.7000000000000001,0.5 -1.3,1.2 -1.7000000000000002,2.1 s-0.7000000000000001,1.9 -0.7000000000000001,3 v8.7 c0,0.5 -0.2,0.9 -0.5,1.2 s-0.7000000000000001,0.5 -1.2,0.5 s-0.9,-0.2 -1.2,-0.5 c-0.30000000000000004,-0.30000000000000004 -0.5,-0.7000000000000001 -0.5,-1.2 V21.824998474121095 c0,-0.5 0.2,-0.9 0.5,-1.2 c0.30000000000000004,-0.30000000000000004 0.7000000000000001,-0.5 1.2,-0.5 c0.5,0 0.9,0.2 1.2,0.5 c0.30000000000000004,0.30000000000000004 0.5,0.7000000000000001 0.5,1.2 V23.724998474121094 c0.5,-1.2 1.3,-2.1 2.4,-2.9 c1.1,-0.7000000000000001 2.3,-1.1 3.6,-1.1 C313.7392297744751,19.724998474121094 314.2392297744751,19.824998474121095 314.7392297744751,20.124998474121092 z" id="svg_11"/>
			<path class="st0" d="M337.0392297744751,34.62499847412109 c-0.8,1.5 -2,2.7 -3.4,3.5 c-1.5,0.8 -3.1,1.3 -4.8,1.3 c-1.8,0 -3.4,-0.4 -4.8,-1.3 c-1.5,-0.8 -2.6,-2 -3.4,-3.5 c-0.8,-1.5 -1.3,-3.2 -1.3,-5 s0.4,-3.6 1.3,-5.1 c0.8,-1.5 2,-2.7 3.4,-3.5 s3.1,-1.3 4.8,-1.3 c1.8,0 3.4,0.4 4.8,1.3 s2.6,2 3.4,3.5 c0.8,1.5 1.3,3.2 1.3,5.1 S337.9392297744751,33.12499847412109 337.0392297744751,34.62499847412109 zM334.1392297744751,26.02499847412109 c-0.5,-1 -1.3,-1.8 -2.2,-2.4 c-0.9,-0.6000000000000001 -2,-0.8 -3.1,-0.8 c-1.1,0 -2.2,0.30000000000000004 -3.1,0.8 c-0.9,0.6000000000000001 -1.7000000000000002,1.4 -2.2,2.4 c-0.5,1 -0.8,2.2 -0.8,3.5 c0,1.3 0.30000000000000004,2.4 0.8,3.4 c0.5,1 1.3,1.8 2.2,2.4 c0.9,0.6000000000000001 1.9,0.8 3.1,0.8 c1.1,0 2.2,-0.30000000000000004 3.1,-0.8 c0.9,-0.6000000000000001 1.7000000000000002,-1.3 2.2,-2.4 c0.5,-1 0.8,-2.1 0.8,-3.4 C334.9392297744751,28.224998474121094 334.6392297744751,27.124998474121092 334.1392297744751,26.02499847412109 z" id="svg_12"/>
		</g>
	</g>
	<g id="svg_13">
		<path class="st0" d="M69.0392297744751,44.52499847412109 c3.3,-2.8 6.7,-6 11.3,-7.1 c4,-1 8.1,0.2 11.6,1.8 c2.7,1.2 5.6,2.7 7.2,4.9 L79.9392297744751,3.2249984741210938 c-1.9,-4.3 -8.2,-4.3 -10.1,0 L57.0392297744751,22.124998474121092 c-2.6,3.8 -8.2,3.8 -10.8,0 L33.439229774475095,3.424998474121093 c-0.1,-0.1 -0.1,-0.2 -0.2,-0.30000000000000004 c-2,-4.1 -8.1,-4.1 -10,0.1 L4.139229774475098,44.02499847412109 c1.7000000000000002,-2.2 4.5,-3.6 7.1,-4.8 c3.5,-1.6 7.6,-2.8 11.6,-1.8 c4.6,1.1 8,4.3 11.3,7.1 c5.1,4.3 9.6,9.3 14.2,14.1 c1.9,1 4.3,0.9 6.3,0.2 c0.1,0 0.1,-0.1 0.2,-0.1 c0,0 0,0 -0.1,0 C59.3392297744751,53.9249984741211 63.8392297744751,48.82499847412109 69.0392297744751,44.52499847412109 z" id="svg_14"/>
		<path class="st1" d="M48.3392297744751,58.6249984741211 c-4.6,-4.8 -9.1,-9.8 -14.2,-14.1 c-3.3,-2.8 -6.7,-6 -11.3,-7.1 c-4,-1 -8.1,0.2 -11.6,1.8 c-2.6,1.2 -5.5,2.6 -7.1,4.8 c-0.30000000000000004,0.4 -0.6000000000000001,0.9 -0.8,1.4 c-0.9,1.9 -2.5,4.7 -3.1,7.1 c-0.2,0.7000000000000001 -0.30000000000000004,1.3 -0.2,1.9 c0,0.2 0.1,0.5 0.1,0.7000000000000001 c0.2,0.7000000000000001 0.5,1.3 0.9,1.9 c0.5,0.8 1.2,1.5 2.6,2 c3.6,1.5 6.8,-2 9.3,-3.8 c4.1,-2.9 7.9,-6.6 12.9,-7.6 c1.7000000000000002,-0.30000000000000004 3.5,-0.2 5.2,0.2 c1.9,0.5 3.7,1.4 5.4,2.4 c1.1,0.8 2.2,1.5 3.3,2.3 c3.2,2.4 6.1,5 8.8,6.1 C48.439229774475095,58.724998474121094 48.3392297744751,58.6249984741211 48.3392297744751,58.6249984741211 z" id="svg_15"/>
		<path class="st1" d="M102.9392297744751,52.1249984741211 c-0.7000000000000001,-2.3 -2.1,-4.9 -3,-6.7 c-0.2,-0.4 -0.5,-0.8 -0.7000000000000001,-1.2 c-1.7000000000000002,-2.2 -4.6,-3.7 -7.2,-4.9 c-3.5,-1.6 -7.6,-2.8 -11.6,-1.8 c-4.6,1.1 -8,4.3 -11.3,7.1 c-5.2,4.3 -9.7,9.4 -14.3,14.2 c0,0 0,0 0.1,0 c2.6,-1.1 5.3,-3.5 8.3,-5.8 l4,-2.8 c1.5,-0.9 3.1,-1.7000000000000002 4.8,-2.2 c1.8,-0.4 3.6,-0.5 5.4,-0.2 c5,0.9 8.8,4.6 12.9,7.6 c2.5,1.8 5.7,5.2 9.3,3.8 c1,-0.4 1.6,-0.8 2.1,-1.3 c0,0 0.1,-0.1 0.1,-0.1 c0.1,-0.1 0.1,-0.1 0.2,-0.2 C103.1392297744751,56.02499847412109 103.6392297744751,54.1249984741211 102.9392297744751,52.1249984741211 z" id="svg_16"/>
	</g>
</g></g></svg>