<?xml version="1.0" encoding="utf-8"?>
<!-- Generator: Adobe Illustrator 21.0.0, SVG Export Plug-In . SVG Version: 6.00 Build 0)  -->
<svg version="1.1" id="Layer_1" xmlns="http://www.w3.org/2000/svg" xmlns:xlink="http://www.w3.org/1999/xlink" x="0px" y="0px"
	 viewBox="0 0 280 160" style="enable-background:new 0 0 280 160;" xml:space="preserve">
<style type="text/css">
	.st0{fill:#FFFFFF;}
	.st1{opacity:0.6;fill:#FFFFFF;}
</style>
<g>
	<g>
		<path class="st0" d="M61.9,134.5v10.2c0,0.5-0.2,1-0.5,1.3c-0.3,0.3-0.8,0.5-1.3,0.5s-1-0.2-1.3-0.5c-0.3-0.4-0.5-0.8-0.5-1.3
			v-10.1c0-3.3-1.4-5-4.2-5c-1,0-1.9,0.2-2.7,0.7c-0.8,0.4-1.4,1-1.9,1.8c-0.4,0.8-0.7,1.6-0.7,2.5v10.1c0,0.5-0.2,0.9-0.5,1.3
			c-0.3,0.4-0.8,0.5-1.3,0.5s-1-0.2-1.3-0.5s-0.5-0.8-0.5-1.3v-10.2c0-1.5-0.3-2.7-1-3.6c-0.6-0.9-1.7-1.4-3.2-1.4
			c-1.5,0-2.7,0.5-3.7,1.4c-1,1-1.5,2.1-1.5,3.5v10.2c0,0.5-0.2,0.9-0.5,1.3c-0.3,0.4-0.8,0.5-1.3,0.5s-1-0.2-1.3-0.5
			s-0.5-0.8-0.5-1.3v-16.3c0-0.5,0.2-0.9,0.5-1.3c0.3-0.4,0.8-0.5,1.3-0.5c0.5,0,1,0.2,1.3,0.5c0.3,0.4,0.5,0.8,0.5,1.3v1.3
			c0.7-1,1.5-1.8,2.6-2.5c1.1-0.7,2.3-1,3.6-1c3.1,0,5.2,1.4,6.1,4.2c0.6-1.1,1.5-2,2.8-2.9c1.3-0.9,2.7-1.3,4.1-1.3
			C59.7,126.2,61.9,129,61.9,134.5z"/>
		<path class="st0" d="M87.2,137c-0.4,0.3-0.8,0.5-1.3,0.5H72.5c0.2,1.9,0.9,3.3,2.1,4.5c1.2,1.1,2.7,1.7,4.5,1.7
			c1.2,0,2.2-0.2,3-0.5c0.8-0.4,1.4-0.8,2-1.4c0.4-0.2,0.7-0.3,1.1-0.3c0.4,0,0.8,0.2,1.1,0.5c0.3,0.3,0.4,0.7,0.4,1.1
			c0,0.5-0.3,1-0.8,1.4c-0.7,0.7-1.7,1.4-2.9,1.9c-1.2,0.5-2.5,0.8-3.7,0.8c-2.1,0-3.9-0.4-5.4-1.3c-1.6-0.9-2.8-2.1-3.6-3.6
			c-0.9-1.5-1.3-3.3-1.3-5.3c0-2.1,0.4-4,1.3-5.6c0.9-1.6,2-2.9,3.5-3.7c1.4-0.9,3-1.3,4.6-1.3c1.6,0,3.1,0.4,4.6,1.3
			c1.4,0.8,2.6,2,3.4,3.5c0.9,1.5,1.3,3.1,1.3,5C87.7,136.3,87.5,136.6,87.2,137z M74.7,130.7c-1,0.8-1.7,2-2.1,3.7h11.2v-0.3
			c-0.1-1.3-0.7-2.5-1.8-3.3c-1.1-0.9-2.3-1.3-3.7-1.3C77,129.5,75.7,129.9,74.7,130.7z"/>
		<path class="st0" d="M112.3,118.9c0.3,0.3,0.5,0.8,0.5,1.3v24.5c0,0.5-0.2,0.9-0.5,1.3c-0.3,0.4-0.8,0.5-1.3,0.5
			c-0.5,0-1-0.2-1.3-0.5c-0.3-0.3-0.5-0.8-0.5-1.3v-1.1c-0.6,0.9-1.5,1.7-2.7,2.3c-1.2,0.6-2.4,1-3.7,1c-1.7,0-3.3-0.4-4.7-1.3
			c-1.4-0.9-2.5-2.1-3.3-3.7c-0.8-1.6-1.2-3.4-1.2-5.4s0.4-3.8,1.2-5.4c0.8-1.6,1.9-2.8,3.3-3.7c1.4-0.9,2.9-1.3,4.6-1.3
			c1.3,0,2.6,0.3,3.7,0.8c1.1,0.6,2.1,1.3,2.8,2.2v-9c0-0.5,0.2-1,0.5-1.3c0.3-0.3,0.8-0.5,1.3-0.5
			C111.5,118.4,111.9,118.5,112.3,118.9z M106.4,142.7c0.9-0.6,1.7-1.4,2.2-2.5c0.5-1.1,0.8-2.3,0.8-3.6c0-1.3-0.3-2.5-0.8-3.6
			c-0.5-1.1-1.2-1.9-2.2-2.5c-0.9-0.6-2-0.9-3.2-0.9s-2.3,0.3-3.2,0.9c-0.9,0.6-1.7,1.5-2.2,2.5c-0.5,1.1-0.8,2.3-0.8,3.6
			c0,1.3,0.3,2.6,0.8,3.6c0.5,1.1,1.2,1.9,2.2,2.5c0.9,0.6,2,0.9,3.2,0.9S105.5,143.3,106.4,142.7z"/>
		<path class="st0" d="M121,123.5c-0.3-0.3-0.5-0.7-0.5-1.3v-0.6c0-0.6,0.2-1,0.5-1.3c0.3-0.3,0.9-0.4,1.6-0.4
			c0.7,0,1.2,0.1,1.5,0.4c0.3,0.3,0.5,0.7,0.5,1.3v0.6c0,0.6-0.2,1-0.5,1.3s-0.9,0.4-1.6,0.4C121.9,123.9,121.4,123.7,121,123.5z
			 M123.9,146c-0.3,0.4-0.8,0.5-1.3,0.5c-0.5,0-0.9-0.2-1.3-0.5c-0.3-0.4-0.5-0.8-0.5-1.3v-16.5c0-0.5,0.2-0.9,0.5-1.3
			c0.3-0.4,0.8-0.5,1.3-0.5c0.5,0,1,0.2,1.3,0.5c0.3,0.4,0.5,0.8,0.5,1.3v16.5C124.5,145.2,124.3,145.7,123.9,146z"/>
		<path class="st0" d="M150,126.8c0.3,0.3,0.5,0.8,0.5,1.4v16.5c0,0.5-0.2,0.9-0.5,1.3c-0.3,0.4-0.8,0.5-1.3,0.5s-1-0.2-1.3-0.5
			c-0.3-0.3-0.5-0.8-0.5-1.3v-1c-0.7,0.9-1.6,1.6-2.7,2.3s-2.4,0.9-3.7,0.9c-1.7,0-3.3-0.4-4.7-1.3c-1.4-0.9-2.5-2.1-3.3-3.7
			c-0.8-1.6-1.2-3.4-1.2-5.4s0.4-3.8,1.2-5.4c0.8-1.6,1.9-2.8,3.3-3.7c1.4-0.9,2.9-1.3,4.6-1.3c1.3,0,2.6,0.3,3.8,0.8
			c1.2,0.6,2.1,1.3,2.8,2.1v-0.9c0-0.5,0.2-1,0.5-1.3c0.3-0.4,0.8-0.5,1.3-0.5S149.7,126.5,150,126.8z M144.1,142.7
			c0.9-0.6,1.7-1.4,2.2-2.5c0.5-1.1,0.8-2.3,0.8-3.6c0-1.3-0.3-2.5-0.8-3.6c-0.5-1.1-1.2-1.9-2.2-2.5c-0.9-0.6-2-0.9-3.2-0.9
			s-2.3,0.3-3.2,0.9c-0.9,0.6-1.7,1.4-2.2,2.5c-0.5,1.1-0.8,2.3-0.8,3.6c0,1.3,0.3,2.6,0.8,3.6c0.5,1.1,1.2,1.9,2.2,2.5
			c0.9,0.6,2,0.9,3.2,0.9S143.2,143.3,144.1,142.7z"/>
		<path class="st0" d="M176.3,118.9c0.3,0.3,0.5,0.8,0.5,1.3v24.5c0,0.5-0.2,0.9-0.5,1.3c-0.3,0.4-0.8,0.5-1.3,0.5s-1-0.2-1.3-0.5
			c-0.3-0.3-0.5-0.8-0.5-1.3v-1.1c-0.6,0.9-1.5,1.7-2.7,2.3c-1.2,0.6-2.4,1-3.7,1c-1.7,0-3.3-0.4-4.7-1.3c-1.4-0.9-2.5-2.1-3.3-3.7
			c-0.8-1.6-1.2-3.4-1.2-5.4s0.4-3.8,1.2-5.4c0.8-1.6,1.9-2.8,3.3-3.7c1.4-0.9,2.9-1.3,4.6-1.3c1.3,0,2.6,0.3,3.7,0.8
			c1.1,0.6,2.1,1.3,2.8,2.2v-9c0-0.5,0.2-1,0.5-1.3c0.3-0.3,0.8-0.5,1.3-0.5S175.9,118.5,176.3,118.9z M170.4,142.7
			c0.9-0.6,1.7-1.4,2.2-2.5c0.5-1.1,0.8-2.3,0.8-3.6c0-1.3-0.3-2.5-0.8-3.6c-0.5-1.1-1.2-1.9-2.2-2.5c-0.9-0.6-2-0.9-3.2-0.9
			s-2.3,0.3-3.2,0.9c-0.9,0.6-1.7,1.5-2.2,2.5c-0.5,1.1-0.8,2.3-0.8,3.6c0,1.3,0.3,2.6,0.8,3.6c0.5,1.1,1.2,1.9,2.2,2.5
			c0.9,0.6,2,0.9,3.2,0.9S169.5,143.3,170.4,142.7z"/>
		<path class="st0" d="M202.6,141.9c-0.9,1.6-2.1,2.8-3.6,3.7c-1.5,0.9-3.2,1.3-5.1,1.3s-3.5-0.4-5.1-1.3c-1.5-0.9-2.7-2.1-3.6-3.7
			c-0.9-1.6-1.3-3.4-1.3-5.3s0.4-3.8,1.3-5.4c0.9-1.6,2.1-2.8,3.6-3.7c1.5-0.9,3.2-1.3,5.1-1.3s3.5,0.4,5.1,1.3
			c1.5,0.9,2.7,2.1,3.6,3.7c0.9,1.6,1.3,3.4,1.3,5.4S203.5,140.3,202.6,141.9z M199.4,132.9c-0.6-1.1-1.3-1.9-2.3-2.5
			s-2.1-0.9-3.3-0.9s-2.3,0.3-3.3,0.9s-1.8,1.4-2.3,2.5c-0.6,1.1-0.9,2.3-0.9,3.7c0,1.3,0.3,2.6,0.9,3.6c0.6,1.1,1.3,1.9,2.3,2.5
			c1,0.6,2.1,0.9,3.3,0.9s2.3-0.3,3.3-0.9c1-0.6,1.8-1.4,2.3-2.5c0.6-1.1,0.9-2.3,0.9-3.6C200.3,135.2,200,134,199.4,132.9z"/>
		<path class="st0" d="M222.6,126.6c0.5,0.3,0.7,0.8,0.7,1.3c0,0.6-0.2,1.1-0.5,1.4c-0.3,0.3-0.7,0.5-1.2,0.5c-0.2,0-0.6-0.1-1-0.2
			c-0.5-0.2-1-0.3-1.3-0.3c-0.8,0-1.6,0.3-2.3,0.8c-0.7,0.5-1.4,1.3-1.8,2.2c-0.5,1-0.7,2-0.7,3.2v9.2c0,0.5-0.2,0.9-0.5,1.3
			c-0.3,0.4-0.8,0.5-1.3,0.5s-1-0.2-1.3-0.5c-0.3-0.3-0.5-0.8-0.5-1.3v-16.3c0-0.5,0.2-0.9,0.5-1.3c0.3-0.4,0.8-0.5,1.3-0.5
			c0.5,0,1,0.2,1.3,0.5c0.3,0.4,0.5,0.8,0.5,1.3v1.9c0.6-1.2,1.4-2.3,2.5-3c1.1-0.8,2.4-1.2,3.8-1.2
			C221.6,126.1,222.1,126.3,222.6,126.6z"/>
		<path class="st0" d="M246.3,141.9c-0.9,1.6-2.1,2.8-3.6,3.7c-1.5,0.9-3.2,1.3-5.1,1.3s-3.5-0.4-5.1-1.3c-1.5-0.9-2.7-2.1-3.6-3.7
			c-0.9-1.6-1.3-3.4-1.3-5.3s0.4-3.8,1.3-5.4c0.9-1.6,2.1-2.8,3.6-3.7c1.5-0.9,3.2-1.3,5.1-1.3s3.5,0.4,5.1,1.3
			c1.5,0.9,2.7,2.1,3.6,3.7c0.9,1.6,1.3,3.4,1.3,5.4S247.2,140.3,246.3,141.9z M243.1,132.9c-0.6-1.1-1.3-1.9-2.3-2.5
			s-2.1-0.9-3.3-0.9s-2.3,0.3-3.3,0.9s-1.8,1.4-2.3,2.5c-0.6,1.1-0.9,2.3-0.9,3.7c0,1.3,0.3,2.6,0.9,3.6c0.6,1.1,1.3,1.9,2.3,2.5
			c1,0.6,2.1,0.9,3.3,0.9s2.3-0.3,3.3-0.9c1-0.6,1.8-1.4,2.3-2.5c0.6-1.1,0.9-2.3,0.9-3.6C244,135.2,243.7,134,243.1,132.9z"/>
	</g>
	<g>
		<path class="st0" d="M163.5,71.8c4.4-3.7,8.9-7.9,14.9-9.4c5.2-1.3,10.7,0.2,15.3,2.4c3.5,1.6,7.4,3.5,9.6,6.5l-25.4-54
			c-2.5-5.7-10.8-5.6-13.3,0.1l-17,24.9c-3.4,5-10.8,5-14.3,0l-16.9-24.7c-0.1-0.1-0.2-0.3-0.2-0.4c-2.6-5.4-10.7-5.4-13.2,0.2
			L77.6,71.2c2.2-2.9,6-4.7,9.4-6.3c4.7-2.2,10.1-3.7,15.3-2.4c6.1,1.5,10.5,5.7,14.9,9.4c6.8,5.7,12.7,12.3,18.8,18.6
			c2.5,1.3,5.8,1.2,8.4,0.2c0.1,0,0.2-0.1,0.2-0.1c0,0-0.1,0-0.1,0C150.7,84.3,156.6,77.6,163.5,71.8z"/>
		<path class="st1" d="M136.1,90.5c-6.1-6.3-12-13-18.8-18.6c-4.4-3.7-8.9-7.9-14.9-9.4c-5.2-1.3-10.7,0.2-15.3,2.4
			c-3.4,1.6-7.2,3.5-9.4,6.3c-0.4,0.6-0.8,1.2-1.1,1.8c-1.2,2.5-3.3,6.2-4.1,9.4c-0.3,0.9-0.4,1.7-0.3,2.5c0,0.3,0.1,0.6,0.1,0.9
			c0.2,0.9,0.6,1.7,1.1,2.5c0.7,1,1.6,1.9,3.5,2.7c4.7,1.9,8.9-2.6,12.2-5c5.4-3.9,10.4-8.8,17-10c2.3-0.3,4.6-0.3,6.9,0.2
			c2.5,0.6,4.9,1.8,7.2,3.2c1.5,1,2.9,2,4.4,3.1c4.2,3.2,8,6.6,11.6,8.1C136.2,90.6,136.1,90.5,136.1,90.5z"/>
		<path class="st1" d="M208.2,81.9c-0.9-3.1-2.8-6.5-3.9-8.9c-0.3-0.6-0.6-1.1-1-1.6c-2.2-3-6.1-4.9-9.6-6.5
			c-4.7-2.2-10.1-3.7-15.3-2.4c-6.1,1.5-10.5,5.7-14.9,9.4c-6.8,5.7-12.8,12.5-18.9,18.8c0,0,0.1,0,0.1,0c3.4-1.5,7.1-4.6,11-7.7
			l5.3-3.7c2-1.2,4.1-2.3,6.3-2.9c2.4-0.6,4.8-0.7,7.2-0.3c6.7,1.2,11.6,6.1,17.1,10c3.3,2.4,7.5,6.9,12.2,5
			c1.3-0.5,2.1-1.1,2.7-1.8c0,0,0.1-0.1,0.1-0.1c0.1-0.1,0.1-0.2,0.2-0.2C208.6,87.1,209.3,84.5,208.2,81.9z"/>
	</g>
</g>
</svg>
